{
  "accessors": [
    {
      "bufferView": 2,
      "componentType": 5126,
      "count": 4211,
      "max": [
        0.024668952450156212,
        0.06610383093357086,
        0.12179140746593475
      ],
      "min": [
        -0.024668950587511063,
        -0.10479380190372467,
        -0.11807157099246979
      ],
      "type": "VEC3"
    },
    {
      "bufferView": 2,
      "byteOffset": 50532,
      "componentType": 5126,
      "count": 4211,
      "max": [
        1.0,
        1.0,
        1.0
      ],
      "min": [
        -1.0,
        -1.0,
        -1.0
      ],
      "type": "VEC3"
    },
    {
      "bufferView": 1,
      "componentType": 5126,
      "count": 4211,
      "max": [
        0.8003852367401123,
        0.14357468485832214
      ],
      "min": [
        0.06469592452049255,
        0.12830078601837158
      ],
      "type": "VEC2"
    },
    {
      "bufferView": 0,
      "componentType": 5125,
      "count": 7386,
      "type": "SCALAR"
    },
    {
      "bufferView": 2,
      "byteOffset": 101064,
      "componentType": 5126,
      "count": 1541,
      "max": [
        0.023502923548221588,
        0.008096776902675629,
        0.07635782659053802
      ],
      "min": [
        -0.023502923548221588,
        -0.025896131992340088,
        -0.0928424596786499
      ],
      "type": "VEC3"
    },
    {
      "bufferView": 2,
      "byteOffset": 119556,
      "componentType": 5126,
      "count": 1541,
      "max": [
        1.0,
        1.0,
        1.0
      ],
      "min": [
        -1.0,
        -1.0,
        -1.0
      ],
      "type": "VEC3"
    },
    {
      "bufferView": 1,
      "byteOffset": 33688,
      "componentType": 5126,
      "count": 1541,
      "max": [
        0.33707916736602783,
        0.14357468485832214
      ],
      "min": [
        0.06469592452049255,
        0.1333920657634735
      ],
      "type": "VEC2"
    },
    {
      "bufferView": 0,
      "byteOffset": 29544,
      "componentType": 5125,
      "count": 2688,
      "type": "SCALAR"
    },
    {
      "bufferView": 2,
      "byteOffset": 138048,
      "componentType": 5126,
      "count": 2453,
      "max": [
        0.024915266782045364,
        0.05692125856876373,
        0.1545563042163849
      ],
      "min": [
        -0.024915266782045364,
        -0.056921251118183136,
        -0.1545563042163849
      ],
      "type": "VEC3"
    },
    {
      "bufferView": 2,
      "byteOffset": 167484,
      "componentType": 5126,
      "count": 2453,
      "max": [
        1.0,
        1.0,
        1.0
      ],
      "min": [
        -1.0,
        -1.0,
        -1.0
      ],
      "type": "VEC3"
    },
    {
      "bufferView": 1,
      "byteOffset": 46016,
      "componentType": 5126,
      "count": 2453,
      "max": [
        0.33707916736602783,
        0.14357468485832214
      ],
      "min": [
        0.06469592452049255,
        0.1333920955657959
      ],
      "type": "VEC2"
    },
    {
      "bufferView": 0,
      "byteOffset": 40296,
      "componentType": 5125,
      "count": 4260,
      "type": "SCALAR"
    },
    {
      "bufferView": 2,
      "byteOffset": 196920,
      "componentType": 5126,
      "count": 122,
      "max": [
        0.04100952297449112,
        0.011965470388531685,
        0.05593946576118469
      ],
      "min": [
        0.008009521290659904,
        -0.0031395836267620325,
        -0.05122154951095581
      ],
      "type": "VEC3"
    },
    {
      "bufferView": 2,
      "byteOffset": 198384,
      "componentType": 5126,
      "count": 122,
      "max": [
        1.0,
        1.0,
        1.0
      ],
      "min": [
        -1.0,
        -1.0,
        -1.0
      ],
      "type": "VEC3"
    },
    {
      "bufferView": 1,
      "byteOffset": 65640,
      "componentType": 5126,
      "count": 122,
      "max": [
        0.33707916736602783,
        0.14357468485832214
      ],
      "min": [
        0.33707916736602783,
        0.14357465505599976
      ],
      "type": "VEC2"
    },
    {
      "bufferView": 0,
      "byteOffset": 57336,
      "componentType": 5125,
      "count": 204,
      "type": "SCALAR"
    },
    {
      "bufferView": 2,
      "byteOffset": 199848,
      "componentType": 5126,
      "count": 96,
      "max": [
        0.0141292130574584,
        0.031777843832969666,
        0.02900867536664009
      ],
      "min": [
        -0.0141292130574584,
        -0.11748851835727692,
        -0.0747993141412735
      ],
      "type": "VEC3"
    },
    {
      "bufferView": 2,
      "byteOffset": 201000,
      "componentType": 5126,
      "count": 96,
      "max": [
        1.0,
        1.0,
        1.0
      ],
      "min": [
        -1.0,
        -0.8667733669281006,
        -1.0
      ],
      "type": "VEC3"
    },
    {
      "bufferView": 1,
      "byteOffset": 66616,
      "componentType": 5126,
      "count": 96,
      "max": [
        0.33707916736602783,
        0.14357468485832214
      ],
      "min": [
        0.33707916736602783,
        0.14357465505599976
      ],
      "type": "VEC2"
    },
    {
      "bufferView": 0,
      "byteOffset": 58152,
      "componentType": 5125,
      "count": 168,
      "type": "SCALAR"
    },
    {
      "bufferView": 2,
      "byteOffset": 202152,
      "componentType": 5126,
      "count": 554,
      "max": [
        0.016630586236715317,
        0.09712455421686172,
        0.07643335312604904
      ],
      "min": [
        -0.016630586236715317,
        -0.13939280807971954,
        -0.038391903042793274
      ],
      "type": "VEC3"
    },
    {
      "bufferView": 2,
      "byteOffset": 208800,
      "componentType": 5126,
      "count": 554,
      "max": [
        1.0,
        1.0,
        0.9942687153816223
      ],
      "min": [
        -1.0,
        -1.0,
        -0.9942687153816223
      ],
      "type": "VEC3"
    },
    {
      "bufferView": 1,
      "byteOffset": 67384,
      "componentType": 5126,
      "count": 554,
      "max": [
        0.5509127378463745,
        0.14357468485832214
      ],
      "min": [
        0.33707916736602783,
        0.1410289704799652
      ],
      "type": "VEC2"
    },
    {
      "bufferView": 0,
      "byteOffset": 58824,
      "componentType": 5125,
      "count": 918,
      "type": "SCALAR"
    },
    {
      "bufferView": 2,
      "byteOffset": 215448,
      "componentType": 5126,
      "count": 1189,
      "max": [
        0.033161405473947525,
        0.06458631902933121,
        0.14930687844753265
      ],
      "min": [
        -0.03316141292452812,
        -0.11140859127044678,
        -0.16577039659023285
      ],
      "type": "VEC3"
    },
    {
      "bufferView": 2,
      "byteOffset": 229716,
      "componentType": 5126,
      "count": 1189,
      "max": [
        1.0,
        1.0,
        1.0
      ],
      "min": [
        -1.0,
        -1.0,
        -1.0
      ],
      "type": "VEC3"
    },
    {
      "bufferView": 1,
      "byteOffset": 71816,
      "componentType": 5126,
      "count": 1189,
      "max": [
        0.33707916736602783,
        0.14357468485832214
      ],
      "min": [
        0.06469592452049255,
        0.1333920657634735
      ],
      "type": "VEC2"
    },
    {
      "bufferView": 0,
      "byteOffset": 62496,
      "componentType": 5125,
      "count": 2187,
      "type": "SCALAR"
    },
    {
      "bufferView": 2,
      "byteOffset": 243984,
      "componentType": 5126,
      "count": 82,
      "max": [
        0.007640496827661991,
        0.002835929626598954,
        0.004394677467644215
      ],
      "min": [
        -0.007640496827661991,
        -0.04228627681732178,
        -0.014257277362048626
      ],
      "type": "VEC3"
    },
    {
      "bufferView": 2,
      "byteOffset": 244968,
      "componentType": 5126,
      "count": 82,
      "max": [
        1.0,
        1.0,
        1.0
      ],
      "min": [
        -1.0,
        -1.0,
        -1.0
      ],
      "type": "VEC3"
    },
    {
      "bufferView": 1,
      "byteOffset": 81328,
      "componentType": 5126,
      "count": 82,
      "max": [
        0.33707916736602783,
        0.14357465505599976
      ],
      "min": [
        0.33707916736602783,
        0.14357465505599976
      ],
      "type": "VEC2"
    },
    {
      "bufferView": 0,
      "byteOffset": 71244,
      "componentType": 5125,
      "count": 144,
      "type": "SCALAR"
    },
    {
      "bufferView": 2,
      "byteOffset": 245952,
      "componentType": 5126,
      "count": 1577,
      "max": [
        0.018832111731171608,
        0.020687004551291466,
        0.028200944885611534
      ],
      "min": [
        -0.018832111731171608,
        -0.01639840006828308,
        -0.024108195677399635
      ],
      "type": "VEC3"
    },
    {
      "bufferView": 2,
      "byteOffset": 264876,
      "componentType": 5126,
      "count": 1577,
      "max": [
        1.0,
        1.0,
        1.0
      ],
      "min": [
        -1.0,
        -1.0,
        -1.0
      ],
      "type": "VEC3"
    },
    {
      "bufferView": 1,
      "byteOffset": 81984,
      "componentType": 5126,
      "count": 1577,
      "max": [
        0.33707916736602783,
        0.14357468485832214
      ],
      "min": [
        0.06469592452049255,
        0.1333920657634735
      ],
      "type": "VEC2"
    },
    {
      "bufferView": 0,
      "byteOffset": 71820,
      "componentType": 5125,
      "count": 2871,
      "type": "SCALAR"
    },
    {
      "bufferView": 2,
      "byteOffset": 283800,
      "componentType": 5126,
      "count": 584,
      "max": [
        0.005726068280637264,
        0.0057287756353616714,
        0.009462745860219002
      ],
      "min": [
        -0.005726068280637264,
        -0.005729721859097481,
        -0.010155923664569855
      ],
      "type": "VEC3"
    },
    {
      "bufferView": 2,
      "byteOffset": 290808,
      "componentType": 5126,
      "count": 584,
      "max": [
        0.9807853102684021,
        0.9807844161987305,
        1.0
      ],
      "min": [
        -0.9807853102684021,
        -0.98078453540802,
        -1.0
      ],
      "type": "VEC3"
    },
    {
      "bufferView": 1,
      "byteOffset": 94600,
      "componentType": 5126,
      "count": 584,
      "max": [
        0.33707916736602783,
        0.14357465505599976
      ],
      "min": [
        0.33707916736602783,
        0.14357465505599976
      ],
      "type": "VEC2"
    },
    {
      "bufferView": 0,
      "byteOffset": 83304,
      "componentType": 5125,
      "count": 990,
      "type": "SCALAR"
    },
    {
      "bufferView": 2,
      "byteOffset": 297816,
      "componentType": 5126,
      "count": 224,
      "max": [
        0.0051449015736579895,
        0.005153310485184193,
        0.004992648959159851
      ],
      "min": [
        -0.005144900642335415,
        -0.00514012249186635,
        -0.008698840625584126
      ],
      "type": "VEC3"
    },
    {
      "bufferView": 2,
      "byteOffset": 300504,
      "componentType": 5126,
      "count": 224,
      "max": [
        0.9807852506637573,
        0.980783998966217,
        1.0
      ],
      "min": [
        -0.9807852506637573,
        -0.980783998966217,
        -1.0
      ],
      "type": "VEC3"
    },
    {
      "bufferView": 1,
      "byteOffset": 99272,
      "componentType": 5126,
      "count": 224,
      "max": [
        0.5509127378463745,
        0.14102903008460999
      ],
      "min": [
        0.06469592452049255,
        0.1333920657634735
      ],
      "type": "VEC2"
    },
    {
      "bufferView": 0,
      "byteOffset": 87264,
      "componentType": 5125,
      "count": 372,
      "type": "SCALAR"
    },
    {
      "bufferView": 2,
      "byteOffset": 303192,
      "componentType": 5126,
      "count": 584,
      "max": [
        0.005726068280637264,
        0.0057287756353616714,
        0.009462745860219002
      ],
      "min": [
        -0.005726068280637264,
        -0.005729721859097481,
        -0.010155923664569855
      ],
      "type": "VEC3"
    },
    {
      "bufferView": 2,
      "byteOffset": 310200,
      "componentType": 5126,
      "count": 584,
      "max": [
        0.9807853102684021,
        0.9807844161987305,
        1.0
      ],
      "min": [
        -0.9807853102684021,
        -0.98078453540802,
        -1.0
      ],
      "type": "VEC3"
    },
    {
      "bufferView": 1,
      "byteOffset": 101064,
      "componentType": 5126,
      "count": 584,
      "max": [
        0.33707916736602783,
        0.14357468485832214
      ],
      "min": [
        0.33707916736602783,
        0.14357462525367737
      ],
      "type": "VEC2"
    },
    {
      "bufferView": 0,
      "byteOffset": 88752,
      "componentType": 5125,
      "count": 990,
      "type": "SCALAR"
    },
    {
      "bufferView": 2,
      "byteOffset": 317208,
      "componentType": 5126,
      "count": 224,
      "max": [
        0.0051449015736579895,
        0.005153310485184193,
        0.004992648959159851
      ],
      "min": [
        -0.005144900642335415,
        -0.00514012249186635,
        -0.008698840625584126
      ],
      "type": "VEC3"
    },
    {
      "bufferView": 2,
      "byteOffset": 319896,
      "componentType": 5126,
      "count": 224,
      "max": [
        0.9807852506637573,
        0.980783998966217,
        1.0
      ],
      "min": [
        -0.9807852506637573,
        -0.980783998966217,
        -1.0
      ],
      "type": "VEC3"
    },
    {
      "bufferView": 1,
      "byteOffset": 105736,
      "componentType": 5126,
      "count": 224,
      "max": [
        0.5509127378463745,
        0.14102903008460999
      ],
      "min": [
        0.06469592452049255,
        0.1333920955657959
      ],
      "type": "VEC2"
    },
    {
      "bufferView": 0,
      "byteOffset": 92712,
      "componentType": 5125,
      "count": 372,
      "type": "SCALAR"
    },
    {
      "bufferView": 2,
      "byteOffset": 322584,
      "componentType": 5126,
      "count": 584,
      "max": [
        0.005726068280637264,
        0.0057287756353616714,
        0.009462745860219002
      ],
      "min": [
        -0.005726068280637264,
        -0.005729721859097481,
        -0.010155923664569855
      ],
      "type": "VEC3"
    },
    {
      "bufferView": 2,
      "byteOffset": 329592,
      "componentType": 5126,
      "count": 584,
      "max": [
        0.9807853102684021,
        0.9807844161987305,
        1.0
      ],
      "min": [
        -0.9807853102684021,
        -0.98078453540802,
        -1.0
      ],
      "type": "VEC3"
    },
    {
      "bufferView": 1,
      "byteOffset": 107528,
      "componentType": 5126,
      "count": 584,
      "max": [
        0.33707916736602783,
        0.14357465505599976
      ],
      "min": [
        0.33707916736602783,
        0.14357465505599976
      ],
      "type": "VEC2"
    },
    {
      "bufferView": 0,
      "byteOffset": 94200,
      "componentType": 5125,
      "count": 990,
      "type": "SCALAR"
    },
    {
      "bufferView": 2,
      "byteOffset": 336600,
      "componentType": 5126,
      "count": 224,
      "max": [
        0.0051449015736579895,
        0.005153310485184193,
        0.004992648959159851
      ],
      "min": [
        -0.005144900642335415,
        -0.00514012249186635,
        -0.008698840625584126
      ],
      "type": "VEC3"
    },
    {
      "bufferView": 2,
      "byteOffset": 339288,
      "componentType": 5126,
      "count": 224,
      "max": [
        0.9807852506637573,
        0.980783998966217,
        1.0
      ],
      "min": [
        -0.9807852506637573,
        -0.980783998966217,
        -1.0
      ],
      "type": "VEC3"
    },
    {
      "bufferView": 1,
      "byteOffset": 112200,
      "componentType": 5126,
      "count": 224,
      "max": [
        0.5509127378463745,
        0.14102903008460999
      ],
      "min": [
        0.06469592452049255,
        0.1333920657634735
      ],
      "type": "VEC2"
    },
    {
      "bufferView": 0,
      "byteOffset": 98160,
      "componentType": 5125,
      "count": 372,
      "type": "SCALAR"
    },
    {
      "bufferView": 2,
      "byteOffset": 341976,
      "componentType": 5126,
      "count": 584,
      "max": [
        0.005726068280637264,
        0.0057287756353616714,
        0.009462745860219002
      ],
      "min": [
        -0.005726068280637264,
        -0.005729721859097481,
        -0.010155923664569855
      ],
      "type": "VEC3"
    },
    {
      "bufferView": 2,
      "byteOffset": 348984,
      "componentType": 5126,
      "count": 584,
      "max": [
        0.9807853102684021,
        0.9807844161987305,
        1.0
      ],
      "min": [
        -0.9807853102684021,
        -0.98078453540802,
        -1.0
      ],
      "type": "VEC3"
    },
    {
      "bufferView": 1,
      "byteOffset": 113992,
      "componentType": 5126,
      "count": 584,
      "max": [
        0.33707916736602783,
        0.14357465505599976
      ],
      "min": [
        0.33707916736602783,
        0.14357465505599976
      ],
      "type": "VEC2"
    },
    {
      "bufferView": 0,
      "byteOffset": 99648,
      "componentType": 5125,
      "count": 990,
      "type": "SCALAR"
    },
    {
      "bufferView": 2,
      "byteOffset": 355992,
      "componentType": 5126,
      "count": 224,
      "max": [
        0.0051449015736579895,
        0.005153310485184193,
        0.004992648959159851
      ],
      "min": [
        -0.005144900642335415,
        -0.00514012249186635,
        -0.008698840625584126
      ],
      "type": "VEC3"
    },
    {
      "bufferView": 2,
      "byteOffset": 358680,
      "componentType": 5126,
      "count": 224,
      "max": [
        0.9807852506637573,
        0.980783998966217,
        1.0
      ],
      "min": [
        -0.9807852506637573,
        -0.980783998966217,
        -1.0
      ],
      "type": "VEC3"
    },
    {
      "bufferView": 1,
      "byteOffset": 118664,
      "componentType": 5126,
      "count": 224,
      "max": [
        0.5509127378463745,
        0.1410290002822876
      ],
      "min": [
        0.06469592452049255,
        0.1333920955657959
      ],
      "type": "VEC2"
    },
    {
      "bufferView": 0,
      "byteOffset": 103608,
      "componentType": 5125,
      "count": 372,
      "type": "SCALAR"
    },
    {
      "bufferView": 2,
      "byteOffset": 361368,
      "componentType": 5126,
      "count": 584,
      "max": [
        0.005726068280637264,
        0.0057287756353616714,
        0.009462745860219002
      ],
      "min": [
        -0.005726068280637264,
        -0.005729721859097481,
        -0.010155923664569855
      ],
      "type": "VEC3"
    },
    {
      "bufferView": 2,
      "byteOffset": 368376,
      "componentType": 5126,
      "count": 584,
      "max": [
        0.9807853102684021,
        0.9807844161987305,
        1.0
      ],
      "min": [
        -0.9807853102684021,
        -0.98078453540802,
        -1.0
      ],
      "type": "VEC3"
    },
    {
      "bufferView": 1,
      "byteOffset": 120456,
      "componentType": 5126,
      "count": 584,
      "max": [
        0.33707916736602783,
        0.14357468485832214
      ],
      "min": [
        0.33707916736602783,
        0.14357462525367737
      ],
      "type": "VEC2"
    },
    {
      "bufferView": 0,
      "byteOffset": 105096,
      "componentType": 5125,
      "count": 990,
      "type": "SCALAR"
    },
    {
      "bufferView": 2,
      "byteOffset": 375384,
      "componentType": 5126,
      "count": 224,
      "max": [
        0.0051449015736579895,
        0.005153310485184193,
        0.004992648959159851
      ],
      "min": [
        -0.005144900642335415,
        -0.00514012249186635,
        -0.008698840625584126
      ],
      "type": "VEC3"
    },
    {
      "bufferView": 2,
      "byteOffset": 378072,
      "componentType": 5126,
      "count": 224,
      "max": [
        0.9807852506637573,
        0.980783998966217,
        1.0
      ],
      "min": [
        -0.9807852506637573,
        -0.980783998966217,
        -1.0
      ],
      "type": "VEC3"
    },
    {
      "bufferView": 1,
      "byteOffset": 125128,
      "componentType": 5126,
      "count": 224,
      "max": [
        0.5509127378463745,
        0.14102903008460999
      ],
      "min": [
        0.06469592452049255,
        0.1333920955657959
      ],
      "type": "VEC2"
    },
    {
      "bufferView": 0,
      "byteOffset": 109056,
      "componentType": 5125,
      "count": 372,
      "type": "SCALAR"
    }
  ],
  "asset": {
    "extras": {
      "author": "CastleBravo (https://sketchfab.com/BravoCastle)",
      "license": "CC-BY-4.0 (http://creativecommons.org/licenses/by/4.0/)",
      "source": "https://sketchfab.com/3d-models/hk-mp5-submachine-gun-2c33b8da855b46ff90ba89665f607816",
      "title": "HK MP5-Submachine Gun"
    },
    "generator": "Sketchfab-16.8.0",
    "version": "2.0"
  },
  "bufferViews": [
    {
      "buffer": 0,
      "byteLength": 110544,
      "name": "floatBufferViews",
      "target": 34963
    },
    {
      "buffer": 0,
      "byteLength": 126920,
      "byteOffset": 110544,
      "byteStride": 8,
      "name": "floatBufferViews",
      "target": 34962
    },
    {
      "buffer": 0,
      "byteLength": 380760,
      "byteOffset": 237464,
      "byteStride": 12,
      "name": "floatBufferViews",
      "target": 34962
    }
  ],
  "buffers": [
    {
      "byteLength": 618224,
      "uri": "scene.bin"
    }
  ],
  "images": [
    {
      "uri": "textures/material_baseColor.png"
    }
  ],
  "materials": [
    {
      "doubleSided": true,
      "name": "material",
      "pbrMetallicRoughness": {
        "baseColorTexture": {
          "index": 0
        },
        "metallicFactor": 0.0,
        "roughnessFactor": 0.15
      }
    }
  ],
  "meshes": [
    {
      "name": "MP5_Receiver_MP5_0",
      "primitives": [
        {
          "attributes": {
            "NORMAL": 1,
            "POSITION": 0,
            "TEXCOORD_0": 2
          },
          "indices": 3,
          "material": 0,
          "mode": 4
        }
      ]
    },
    {
      "name": "MP5_Receiver_Rail_MP5_0",
      "primitives": [
        {
          "attributes": {
            "NORMAL": 5,
            "POSITION": 4,
            "TEXCOORD_0": 6
          },
          "indices": 7,
          "material": 0,
          "mode": 4
        }
      ]
    },
    {
      "name": "MP5_Barrel1_MP5_0",
      "primitives": [
        {
          "attributes": {
            "NORMAL": 9,
            "POSITION": 8,
            "TEXCOORD_0": 10
          },
          "indices": 11,
          "material": 0,
          "mode": 4
        }
      ]
    },
    {
      "name": "MP5_Barrel1_Bolt_MP5_0",
      "primitives": [
        {
          "attributes": {
            "NORMAL": 13,
            "POSITION": 12,
            "TEXCOORD_0": 14
          },
          "indices": 15,
          "material": 0,
          "mode": 4
        }
      ]
    },
    {
      "name": "MP5_RearGrip1_MP5_0",
      "primitives": [
        {
          "attributes": {
            "NORMAL": 17,
            "POSITION": 16,
            "TEXCOORD_0": 18
          },
          "indices": 19,
          "material": 0,
          "mode": 4
        }
      ]
    },
    {
      "name": "MP5_Mag1_MP5_0",
      "primitives": [
        {
          "attributes": {
            "NORMAL": 21,
            "POSITION": 20,
            "TEXCOORD_0": 22
          },
          "indices": 23,
          "material": 0,
          "mode": 4
        }
      ]
    },
    {
      "name": "MP5_Stock1_MP5_0",
      "primitives": [
        {
          "attributes": {
            "NORMAL": 25,
            "POSITION": 24,
            "TEXCOORD_0": 26
          },
          "indices": 27,
          "material": 0,
          "mode": 4
        }
      ]
    },
    {
      "name": "MP5_Trigger_MP5_0",
      "primitives": [
        {
          "attributes": {
            "NORMAL": 29,
            "POSITION": 28,
            "TEXCOORD_0": 30
          },
          "indices": 31,
          "material": 0,
          "mode": 4
        }
      ]
    },
    {
      "name": "MP5_Sight_Back_MP5_0",
      "primitives": [
        {
          "attributes": {
            "NORMAL": 33,
            "POSITION": 32,
            "TEXCOORD_0": 34
          },
          "indices": 35,
          "material": 0,
          "mode": 4
        }
      ]
    },
    {
      "name": "MP5_Ammo_MP5_0",
      "primitives": [
        {
          "attributes": {
            "NORMAL": 37,
            "POSITION": 36,
            "TEXCOORD_0": 38
          },
          "indices": 39,
          "material": 0,
          "mode": 4
        }
      ]
    },
    {
      "name": "MP5_Ammo_Bullet_MP5_0",
      "primitives": [
        {
          "attributes": {
            "NORMAL": 41,
            "POSITION": 40,
            "TEXCOORD_0": 42
          },
          "indices": 43,
          "material": 0,
          "mode": 4
        }
      ]
    },
    {
      "name": "MP5_Ammo.003_MP5_0",
      "primitives": [
        {
          "attributes": {
            "NORMAL": 45,
            "POSITION": 44,
            "TEXCOORD_0": 46
          },
          "indices": 47,
          "material": 0,
          "mode": 4
        }
      ]
    },
    {
      "name": "MP5_Ammo_Bullet.003_MP5_0",
      "primitives": [
        {
          "attributes": {
            "NORMAL": 49,
            "POSITION": 48,
            "TEXCOORD_0": 50
          },
          "indices": 51,
          "material": 0,
          "mode": 4
        }
      ]
    },
    {
      "name": "MP5_Ammo.004_MP5_0",
      "primitives": [
        {
          "attributes": {
            "NORMAL": 53,
            "POSITION": 52,
            "TEXCOORD_0": 54
          },
          "indices": 55,
          "material": 0,
          "mode": 4
        }
      ]
    },
    {
      "name": "MP5_Ammo_Bullet.004_MP5_0",
      "primitives": [
        {
          "attributes": {
            "NORMAL": 57,
            "POSITION": 56,
            "TEXCOORD_0": 58
          },
          "indices": 59,
          "material": 0,
          "mode": 4
        }
      ]
    },
    {
      "name": "MP5_Ammo.005_MP5_0",
      "primitives": [
        {
          "attributes": {
            "NORMAL": 61,
            "POSITION": 60,
            "TEXCOORD_0": 62
          },
          "indices": 63,
          "material": 0,
          "mode": 4
        }
      ]
    },
    {
      "name": "MP5_Ammo_Bullet.005_MP5_0",
      "primitives": [
        {
          "attributes": {
            "NORMAL": 65,
            "POSITION": 64,
            "TEXCOORD_0": 66
          },
          "indices": 67,
          "material": 0,
          "mode": 4
        }
      ]
    },
    {
      "name": "MP5_Ammo.006_MP5_0",
      "primitives": [
        {
          "attributes": {
            "NORMAL": 69,
            "POSITION": 68,
            "TEXCOORD_0": 70
          },
          "indices": 71,
          "material": 0,
          "mode": 4
        }
      ]
    },
    {
      "name": "MP5_Ammo_Bullet.006_MP5_0",
      "primitives": [
        {
          "attributes": {
            "NORMAL": 73,
            "POSITION": 72,
            "TEXCOORD_0": 74
          },
          "indices": 75,
          "material": 0,
          "mode": 4
        }
      ]
    }
  ],
  "nodes": [
    {
      "children": [
        1
      ],
      "matrix": [
        1.0,
        0.0,
        0.0,
        0.0,
        0.0,
        2.220446049250313e-16,
        -1.0,
        0.0,
        0.0,
        1.0,
        2.220446049250313e-16,
        0.0,
        0.0,
        0.0,
        0.0,
        1.0
      ],
      "name": "Sketchfab_model"
    },
    {
      "children": [
        2
      ],
      "matrix": [
        0.009999999776482582,
        0.0,
        0.0,
        0.0,
        0.0,
        0.0,
        0.009999999776482582,
        0.0,
        0.0,
        -0.009999999776482582,
        0.0,
        0.0,
        0.0,
        0.0,
        0.0,
        1.0
      ],
      "name": "c80c00706ed14e0fb478f224de8a0169.fbx"
    },
    {
      "children": [
        3,
        7,
        11,
        13,
        15,
        17,
        19,
        21,
        25,
        29,
        33,
        37
      ],
      "name": "RootNode"
    },
    {
      "children": [
        4,
        5
      ],
      "matrix": [
        1.0,
        0.0,
        0.0,
        0.0,
        0.0,
        0.999999999999999,
        4.371138828673792e-08,
        0.0,
        0.0,
        -4.371138828673792e-08,
        0.999999999999999,
        0.0,
        0.0,
        -0.012287382036447525,
        0.005420297384262085,
        1.0
      ],
      "name": "MP5_Receiver"
    },
    {
      "mesh": 0,
      "name": "MP5_Receiver_MP5_0"
    },
    {
      "children": [
        6
      ],
      "matrix": [
        1.0,
        0.0,
        0.0,
        0.0,
        0.0,
        1.0,
        6.61744490042422e-24,
        0.0,
        0.0,
        -6.61744490042422e-24,
        1.0,
        0.0,
        0.0,
        0.06500706076622009,
        0.04085934907197952,
        1.0
      ],
      "name": "MP5_Receiver_Rail"
    },
    {
      "mesh": 1,
      "name": "MP5_Receiver_Rail_MP5_0"
    },
    {
      "children": [
        8,
        9
      ],
      "matrix": [
        1.0,
        0.0,
        0.0,
        0.0,
        0.0,
        0.999999999999999,
        4.371138828673792e-08,
        0.0,
        0.0,
        -4.371138828673792e-08,
        0.999999999999999,
        0.0,
        0.0,
        0.021694429218769073,
        0.24637658894062042,
        1.0
      ],
      "name": "MP5_Barrel1"
    },
    {
      "mesh": 2,
      "name": "MP5_Barrel1_MP5_0"
    },
    {
      "children": [
        10
      ],
      "matrix": [
        1.0,
        0.0,
        0.0,
        0.0,
        0.0,
        0.9999999999999929,
        1.1920928955078097e-07,
        0.0,
        0.0,
        -1.1920928955078097e-07,
        0.9999999999999929,
        0.0,
        0.0,
        0.015261610969901085,
        -0.030963987112045288,
        1.0
      ],
      "name": "MP5_Barrel1_Bolt"
    },
    {
      "mesh": 3,
      "name": "MP5_Barrel1_Bolt_MP5_0"
    },
    {
      "children": [
        12
      ],
      "matrix": [
        1.0,
        0.0,
        0.0,
        0.0,
        0.0,
        0.999999999999999,
        4.371138828673792e-08,
        0.0,
        0.0,
        -4.371138828673792e-08,
        0.999999999999999,
        0.0,
        0.0,
        -0.0668257474899292,
        -0.05569026991724968,
        1.0
      ],
      "name": "MP5_RearGrip1"
    },
    {
      "mesh": 4,
      "name": "MP5_RearGrip1_MP5_0"
    },
    {
      "children": [
        14
      ],
      "matrix": [
        1.0,
        0.0,
        0.0,
        0.0,
        0.0,
        0.999999999999999,
        4.371138828673792e-08,
        0.0,
        0.0,
        -4.371138828673792e-08,
        0.999999999999999,
        0.0,
        0.0,
        -0.11041630804538727,
        0.1061144471168518,
        1.0
      ],
      "name": "MP5_Mag1"
    },
    {
      "mesh": 5,
      "name": "MP5_Mag1_MP5_0"
    },
    {
      "children": [
        16
      ],
      "matrix": [
        1.0,
        0.0,
        0.0,
        0.0,
        0.0,
        0.999999999999999,
        4.371138828673792e-08,
        0.0,
        0.0,
        -4.371138828673792e-08,
        0.999999999999999,
        0.0,
        0.0,
        -0.013813741505146027,
        -0.24079248309135437,
        1.0
      ],
      "name": "MP5_Stock1"
    },
    {
      "mesh": 6,
      "name": "MP5_Stock1_MP5_0"
    },
    {
      "children": [
        18
      ],
      "matrix": [
        1.0,
        0.0,
        0.0,
        0.0,
        0.0,
        0.999999999999999,
        4.371138828673792e-08,
        0.0,
        0.0,
        -4.371138828673792e-08,
        0.999999999999999,
        0.0,
        0.0,
        -0.06570902466773987,
        -0.0032581984996795654,
        1.0
      ],
      "name": "MP5_Trigger"
    },
    {
      "mesh": 7,
      "name": "MP5_Trigger_MP5_0"
    },
    {
      "children": [
        20
      ],
      "matrix": [
        1.0,
        0.0,
        0.0,
        0.0,
        0.0,
        0.999999999999999,
        4.371138828673792e-08,
        0.0,
        0.0,
        -4.371138828673792e-08,
        0.999999999999999,
        0.0,
        0.0,
        0.05577249452471733,
        -0.07593680173158646,
        1.0
      ],
      "name": "MP5_Sight_Back"
    },
    {
      "mesh": 8,
      "name": "MP5_Sight_Back_MP5_0"
    },
    {
      "children": [
        22,
        23
      ],
      "matrix": [
        1.0,
        0.0,
        0.0,
        0.0,
        0.0,
        0.003705687782373679,
        -0.9999931339154583,
        0.0,
        0.0,
        0.9999931339154583,
        0.003705687782373679,
        0.0,
        0.055773817002773285,
        -0.2398073524236679,
        0.07421718537807465,
        1.0
      ],
      "name": "MP5_Ammo"
    },
    {
      "mesh": 9,
      "name": "MP5_Ammo_MP5_0"
    },
    {
      "children": [
        24
      ],
      "matrix": [
        1.0,
        0.0,
        0.0,
        0.0,
        0.0,
        1.0,
        0.0,
        0.0,
        0.0,
        0.0,
        1.0,
        0.0,
        0.0,
        -7.450580596923828e-09,
        0.0168317761272192,
        1.0
      ],
      "name": "MP5_Ammo_Bullet"
    },
    {
      "mesh": 10,
      "name": "MP5_Ammo_Bullet_MP5_0"
    },
    {
      "children": [
        26,
        27
      ],
      "matrix": [
        1.0,
        0.0,
        0.0,
        0.0,
        0.0,
        0.003705687782373679,
        -0.9999931339154583,
        0.0,
        0.0,
        0.9999931339154583,
        0.003705687782373679,
        0.0,
        0.07577381283044815,
        -0.2398073524236679,
        0.06421718746423721,
        1.0
      ],
      "name": "MP5_Ammo.003"
    },
    {
      "mesh": 11,
      "name": "MP5_Ammo.003_MP5_0"
    },
    {
      "children": [
        28
      ],
      "matrix": [
        1.0,
        0.0,
        0.0,
        0.0,
        0.0,
        1.0,
        0.0,
        0.0,
        0.0,
        0.0,
        1.0,
        0.0,
        0.0,
        -7.450580596923828e-09,
        0.01683177798986435,
        1.0
      ],
      "name": "MP5_Ammo_Bullet.003"
    },
    {
      "mesh": 12,
      "name": "MP5_Ammo_Bullet.003_MP5_0"
    },
    {
      "children": [
        30,
        31
      ],
      "matrix": [
        1.0,
        0.0,
        0.0,
        0.0,
        0.0,
        0.003705687782373679,
        -0.9999931339154583,
        0.0,
        0.0,
        0.9999931339154583,
        0.003705687782373679,
        0.0,
        0.07577381283044815,
        -0.2398073524236679,
        0.08421719074249268,
        1.0
      ],
      "name": "MP5_Ammo.004"
    },
    {
      "mesh": 13,
      "name": "MP5_Ammo.004_MP5_0"
    },
    {
      "children": [
        32
      ],
      "matrix": [
        1.0,
        0.0,
        0.0,
        0.0,
        0.0,
        1.0,
        0.0,
        0.0,
        0.0,
        0.0,
        1.0,
        0.0,
        0.0,
        1.3877787807814457e-17,
        0.01683177426457405,
        1.0
      ],
      "name": "MP5_Ammo_Bullet.004"
    },
    {
      "mesh": 14,
      "name": "MP5_Ammo_Bullet.004_MP5_0"
    },
    {
      "children": [
        34,
        35
      ],
      "matrix": [
        0.7071067235853896,
        1.8490376789892955e-10,
        -0.707106754494008,
        0.0,
        0.0026203787800775924,
        0.9999931335910901,
        0.0026203789270288266,
        0.0,
        0.7071018992103731,
        -0.003705775092369187,
        0.707101868300998,
        0.0,
        0.0771135613322258,
        -0.24413266777992249,
        0.042032498866319656,
        1.0
      ],
      "name": "MP5_Ammo.005"
    },
    {
      "mesh": 15,
      "name": "MP5_Ammo.005_MP5_0"
    },
    {
      "children": [
        36
      ],
      "matrix": [
        1.0,
        1.1641573837740948e-10,
        2.1571633368466792e-13,
        0.0,
        -1.1641573143849076e-10,
        0.9999999403953552,
        2.775557561562892e-17,
        0.0,
        -2.1571635940005557e-13,
        -2.775560569149215e-17,
        1.0000001192092896,
        0.0,
        2.0489096641540527e-08,
        1.1525116860866547e-08,
        0.01683174818754196,
        1.0
      ],
      "name": "MP5_Ammo_Bullet.005"
    },
    {
      "mesh": 16,
      "name": "MP5_Ammo_Bullet.005_MP5_0"
    },
    {
      "children": [
        38,
        39
      ],
      "matrix": [
        -0.939692674545306,
        1.2590278537609467e-11,
        -0.3420199956229016,
        0.0,
        0.001267449253423844,
        0.9999931335912506,
        -0.003482289870336344,
        0.0,
        0.3420176471737673,
        -0.0037057752699066592,
        -0.9396862222313198,
        0.0,
        0.09325579553842545,
        -0.24413266777992249,
        0.08493083715438843,
        1.0
      ],
      "name": "MP5_Ammo.006"
    },
    {
      "mesh": 17,
      "name": "MP5_Ammo.006_MP5_0"
    },
    {
      "children": [
        40
      ],
      "matrix": [
        0.9999999999999999,
        -5.820766113030783e-11,
        -1.4901159361979667e-08,
        0.0,
        5.820766113030804e-11,
        1.0,
        1.3444106938820258e-17,
        0.0,
        1.4901161138336288e-08,
        -1.4311470279471086e-17,
        1.0000001192092893,
        0.0,
        -1.4901161193847656e-08,
        3.434251993894577e-09,
        0.01683175563812256,
        1.0
      ],
      "name": "MP5_Ammo_Bullet.006"
    },
    {
      "mesh": 18,
      "name": "MP5_Ammo_Bullet.006_MP5_0"
    }
  ],
  "samplers": [
    {
      "magFilter": 9729,
      "minFilter": 9987,
      "wrapS": 10497,
      "wrapT": 10497
    }
  ],
  "scene": 0,
  "scenes": [
    {
      "name": "Sketchfab_Scene",
      "nodes": [
        0
      ]
    }
  ],
  "textures": [
    {
      "sampler": 0,
      "source": 0
    }
  ]
}
